General

Format                         : MPEG-4
Format profile                 : Base Media
Codec ID                       : isom
File size                      : 61.8 MiB
Duration                       : 3mn 58s
Overall bit rate mode          : Variable
Overall bit rate               : 2 177 Kbps
Encoded date                   : UTC 2012-10-09 04:33:18
Tagged date                    : UTC 2012-10-09 04:33:18

Video
ID                             : 1
Format                         : AVC
Format/Info                    : Advanced Video Codec
Format profile                 : High@L3.0
Format settings, CABAC         : Yes
Format settings, ReFrames      : 2 frames
Codec ID                       : avc1
Codec ID/Info                  : Advanced Video Coding
Duration                       : 3mn 58s
Bit rate                       : 1 990 Kbps
Maximum bit rate               : 7 033 Kbps
Width                          : 720 pixels
Height                         : 480 pixels
Display aspect ratio           : 16:9
Original display aspect ratio  : 16:9
Frame rate mode                : Constant
Frame rate                     : 24.000 fps
Standard                       : NTSC
Color space                    : YUV
Chroma subsampling             : 4:2:0
Bit depth                      : 8 bits
Scan type                      : Progressive
Bits/(Pixel*Frame)             : 0.240
Stream size                    : 56.5 MiB (91%)


Audio
ID                             : 2
Format                         : AAC
Format/Info                    : Advanced Audio Codec
Format profile                 : LC
Codec ID                       : 40
Duration                       : 3mn 58s
Bit rate mode                  : Variable
Bit rate                       : 184 Kbps
Maximum bit rate               : 215 Kbps
Channel(s)                     : 2 channels
Channel positions              : Front: L R
Sampling rate                  : 44.1 KHz
Compression mode               : Lossy
Stream size                    : 5.22 MiB (8%)